<?xml version="1.0" standalone="yes"?>
<svg xmlns="http://www.w3.org/2000/svg" width="197" height="191">
<path style="fill:#ffffff; stroke:none;" d="M0 0L0 191L149 191L149 190C134.975 186.05 120.426 178.083 106 177.09C88.9379 175.915 62.7166 182.791 48 172.671C41.281 168.051 34.8525 159.592 31.7793 152C29.9455 147.469 30.8466 142.021 27.6821 138.09C21.5936 130.525 6.24183 123.377 4.54244 113C3.177 104.663 14.3156 98.1131 13.9599 89C13.2781 71.5316 -2.34216 55.5865 2.3179 37C4.70223 27.4902 21.4285 21.4631 27 31C21.9295 30.986 15.7573 29.1611 11.0193 31.4344C4.89597 34.3724 5.96398 41.3043 6.00077 46.9992C6.0952 61.6135 17.4266 74.7502 17.9599 89C18.3302 98.8955 4.1057 107.863 10.5733 117C16.405 125.238 26.8086 129.895 32.2577 138.09C34.7383 141.82 33.9808 146.849 35.4097 151C37.5855 157.321 43.4965 165.376 49.0046 169.15C63.7388 179.244 89.9852 171.197 107 173.286C123.378 175.298 137.276 186.105 154 186.956C164.332 187.482 179.696 179.169 183.397 169C184.874 164.944 183.62 160.213 184.595 156C185.699 151.228 188.264 145.979 187.747 141C186.691 130.832 182.113 122.914 183.059 112C183.963 101.561 196.527 96.1175 190.566 84.044C183.719 70.1741 165.948 79.4151 158.819 68.956C152.106 59.1081 166.72 44.9924 158.682 38.1327C146.823 28.0116 130.502 25.5407 117 19.1011C110.748 16.1191 107.787 9.4707 101.985 6.08951C95.3346 2.21376 77.3443 2.16365 70.054 4.51389C65.1349 6.0997 63.7098 12.058 59.8711 15.0988C51.2395 21.9364 36.1809 28.1818 25 26L50 17.2809L68 1L47 0L0 0z"/>
<path style="fill:#010101; stroke:none;" d="M25 26C35.6896 28.9391 52.6371 21.9492 60.74 15.0988C64.8983 11.5832 66.0817 5.52495 72.0046 4.27855C79.73 2.65283 95.3054 2.17125 101.985 6.70293C107.229 10.2599 110.092 16.2825 116 19.1011C129.79 25.6804 145.241 28.5821 157.852 38.1327C166.529 44.704 151.532 59.7617 158.819 69.8912C163.054 75.7795 169.954 73.1263 175.996 74.2284C180.509 75.0516 187.697 80.1335 190.062 84.044C196.874 95.3102 183.92 101.058 183.059 111C182.082 122.266 186.09 130.465 187.516 141C188.136 145.577 185.611 150.607 184.595 155C183.62 159.213 184.874 163.943 183.397 168C180.588 175.721 171.012 181.593 164 185.004C148.946 192.327 131.085 178.343 117 174.898C97.6656 170.17 77.2148 176.533 58 172.62C47.9908 170.582 38.6287 159.352 35.4097 150C33.676 144.963 34.7294 139.525 30.7716 135.439C25.0924 129.576 9.3356 121.048 8.9429 112C8.72706 107.027 14.4226 102.136 16.571 98C18.551 94.1879 18.2835 89.1616 17.7099 85.0039C15.9023 71.9017 6.08794 59.6711 6.00077 46C5.96137 39.8201 5.97311 33.371 13.0008 31.0718C17.1849 29.7029 22.6252 30.9971 27 31C23.4277 20.8407 4.50511 27.2798 2.3179 36C-2.61538 55.6686 13.8649 71.7032 13.9414 90C13.9784 98.8545 2.27526 105.025 4.44907 114C6.87639 124.021 20.3503 130.919 26.8519 138.09C30.5409 142.158 29.7277 147.113 31.4097 152C33.5274 158.153 39.0631 166.205 44.0193 170.38C62.3206 185.8 94.1168 172.812 116 179.019C138.443 185.384 155.014 198.413 176.999 182.243C180.587 179.605 185.395 176.167 187.157 171.907C188.817 167.892 187.623 163.206 188.209 159C189.132 152.38 193.012 145.843 191.725 139C190.003 129.848 185.653 122.919 187.147 113C188.905 101.333 201.997 94.417 193.525 81.0193C190.395 76.0682 182.788 71.0983 177 70.213C171.485 69.3694 165.384 71.4823 161.92 65.811C156.12 56.3149 170.18 46.7091 163.397 37.108C155.463 25.8788 133.182 20.8013 121 16.186C113.822 13.4664 110.912 7.16229 104.91 3.14429C97.6418 -1.72066 74.7975 -2.82622 67.0185 1.3179C59.5988 5.27061 56.3752 13.9947 48 17.7762C40.7213 21.0627 30.6808 19.8528 25 26z"/>
<path style="fill:#ffffff; stroke:none;" d="M98 0L98 1C106.351 2.61594 109.22 10.0902 116.015 14.2353C126.908 20.8813 140.604 23.8259 152 30.385C156.203 32.8041 161.598 34.4102 163.972 39.0154C168.709 48.2044 156.419 56.3698 161.417 65.811C164.63 71.8785 171.515 69.1955 177 70.3904C183.644 71.8379 191.825 77.7403 194.581 84C200.292 96.9717 187.51 102.55 187.019 114C186.587 124.068 191.107 131.666 191.827 141C192.243 146.385 189.354 151.795 188.375 157C187.519 161.55 188.903 166.591 187.157 170.96C183.776 179.417 170.273 187.381 162 190L162 191L197 191L197 0L98 0z"/>
</svg>
