<?xml version="1.0" standalone="no"?>
<!DOCTYPE svg PUBLIC "-//W3C//DTD SVG 20010904//EN"
 "http://www.w3.org/TR/2001/REC-SVG-20010904/DTD/svg10.dtd">
<svg version="1.0" xmlns="http://www.w3.org/2000/svg"
 width="253.000000pt" height="219.000000pt" viewBox="0 0 253.000000 219.000000"
 preserveAspectRatio="xMidYMid meet">

<g transform="translate(0.000000,219.000000) scale(0.100000,-0.100000)"
fill="#000000" stroke="none">
<path d="M893 2025 c-18 -15 -33 -32 -33 -38 -1 -38 -124 -121 -194 -131 -27
-4 -56 -12 -65 -16 -9 -5 -32 -12 -52 -15 -39 -6 -67 -29 -50 -39 13 -8 121 5
121 14 0 5 23 11 52 15 35 5 74 21 121 51 63 39 80 56 103 104 17 35 38 39
176 40 75 0 149 -5 164 -10 15 -6 57 -41 93 -78 60 -61 71 -68 126 -80 54 -11
145 -52 333 -151 59 -32 62 -35 62 -72 0 -21 -11 -58 -25 -85 -28 -53 -32
-105 -10 -157 23 -55 48 -67 138 -67 69 0 80 -3 100 -24 12 -13 32 -26 43 -30
38 -12 56 -42 61 -104 6 -64 -4 -88 -65 -154 -24 -26 -24 -30 -20 -145 4 -98
9 -126 28 -165 l24 -47 -19 -68 c-10 -37 -21 -102 -24 -144 -5 -67 -10 -79
-41 -116 -19 -22 -66 -60 -105 -84 -65 -41 -75 -44 -135 -43 -78 1 -252 44
-290 72 -63 47 -118 55 -425 61 -186 4 -300 11 -316 18 -36 16 -99 72 -99 88
0 7 -7 19 -16 26 -37 30 -64 90 -71 152 -6 57 -9 65 -47 97 -92 79 -216 209
-216 228 0 10 9 31 20 45 11 14 20 28 20 32 0 4 14 25 31 47 31 38 32 41 26
119 -3 52 -10 85 -20 92 -18 15 -35 60 -47 122 -11 62 -32 125 -42 125 -5 0
-8 42 -8 93 0 88 2 95 26 118 23 22 33 24 105 22 64 -3 79 0 79 12 0 18 -37
28 -112 29 -54 1 -60 -2 -98 -39 l-40 -39 0 -96 c0 -82 4 -104 25 -148 14 -29
25 -62 25 -75 0 -36 27 -117 45 -137 11 -12 19 -43 22 -84 5 -61 4 -67 -26
-104 -17 -22 -31 -43 -31 -47 0 -4 -9 -18 -20 -32 -34 -44 -26 -76 38 -146 32
-36 90 -92 128 -125 71 -61 71 -62 77 -122 7 -59 35 -119 71 -149 9 -7 16 -21
16 -31 0 -23 85 -94 136 -114 31 -12 99 -16 324 -19 292 -4 340 -10 385 -47
42 -36 227 -83 325 -84 73 -1 78 1 150 46 41 26 96 67 122 92 l47 46 3 82 c3
46 12 109 21 141 22 77 21 108 -5 153 -17 29 -22 57 -26 138 l-4 103 47 62 48
62 -5 73 c-4 62 -9 79 -34 110 -16 20 -37 36 -46 36 -10 0 -18 4 -18 10 0 23
-79 50 -145 50 -68 0 -82 6 -103 47 -19 34 -14 76 13 127 32 60 34 134 5 161
-43 39 -323 177 -393 194 -59 14 -115 50 -142 91 -11 17 -36 41 -55 53 -32 20
-50 22 -195 25 -159 3 -160 3 -192 -23z"/>
</g>
</svg>
