<?xml version="1.0" standalone="no"?>
<!DOCTYPE svg PUBLIC "-//W3C//DTD SVG 20010904//EN"
 "http://www.w3.org/TR/2001/REC-SVG-20010904/DTD/svg10.dtd">
<svg version="1.0" xmlns="http://www.w3.org/2000/svg"
 width="200.000000pt" height="178.000000pt" viewBox="0 0 200.000000 178.000000"
 preserveAspectRatio="xMidYMid meet">

<g transform="translate(0.000000,178.000000) scale(0.100000,-0.100000)"
fill="#000000" stroke="none">
<path d="M1545 1724 c-87 -60 -146 -136 -275 -357 -26 -44 -37 -61 -152 -219
-37 -51 -81 -121 -97 -155 -31 -66 -45 -77 -54 -43 -3 11 -12 20 -20 20 -19 0
-68 84 -96 163 -11 32 -32 79 -47 105 -14 26 -38 67 -52 92 -14 25 -37 63 -52
85 -15 22 -48 79 -74 127 -33 62 -64 103 -104 138 -60 54 -73 58 -92 35 -18
-22 12 -135 55 -204 19 -31 42 -81 51 -111 8 -30 36 -95 61 -145 25 -49 54
-114 64 -144 11 -30 37 -78 59 -107 22 -29 40 -62 40 -74 0 -11 -13 -48 -29
-82 -16 -35 -33 -79 -36 -100 -13 -70 -62 -93 -220 -104 -201 -12 -279 -47
-347 -153 -25 -39 -29 -54 -25 -93 4 -51 78 -212 101 -221 7 -3 61 -17 120
-32 103 -25 152 -27 219 -8 20 5 115 121 142 173 10 19 35 58 55 85 20 28 70
108 110 180 98 174 98 175 114 175 17 0 80 -83 121 -161 28 -52 74 -116 143
-199 16 -19 35 -46 42 -60 31 -61 126 -194 159 -220 59 -49 92 -60 184 -60
l85 0 67 63 c64 59 67 64 72 118 5 48 -1 74 -38 184 -31 92 -55 144 -85 186
-57 76 -81 84 -240 75 l-123 -7 -57 60 c-31 34 -86 79 -121 102 -64 40 -65 41
-46 61 l18 21 -67 -5 c-37 -3 -69 -3 -72 0 -3 3 3 19 13 36 10 17 24 47 31 66
7 19 30 57 49 84 75 102 172 244 221 326 105 172 153 237 206 274 114 79 194
25 159 -108 -20 -75 -25 -84 -104 -191 -37 -49 -97 -130 -133 -180 -41 -56
-106 -125 -172 -183 -104 -93 -160 -150 -100 -102 133 106 230 200 281 273 32
45 87 120 123 166 36 46 73 94 83 106 23 30 67 160 67 198 0 18 -10 39 -29 58
-41 41 -90 39 -156 -7z m-1047 -69 c30 -22 74 -88 122 -184 22 -44 44 -82 49
-85 17 -11 131 -221 150 -278 10 -30 38 -90 61 -132 39 -72 46 -106 19 -106
-17 0 -99 93 -99 113 0 9 -7 17 -15 17 -19 0 -69 74 -89 132 -8 26 -36 89 -62
139 -25 50 -55 121 -66 157 -11 36 -31 80 -44 97 -25 33 -68 145 -56 145 4 0
17 -7 30 -15z m318 -768 c11 -12 31 -31 46 -43 14 -11 35 -38 46 -60 l20 -39
-25 -45 c-104 -186 -250 -421 -306 -491 -23 -30 -38 -39 -86 -48 -49 -10 -68
-8 -141 10 -155 38 -146 32 -189 119 -66 133 -62 192 15 259 45 40 86 51 233
62 68 5 143 14 165 20 60 16 114 72 132 139 16 56 54 140 65 140 3 0 14 -10
25 -23z m186 -58 c-5 -42 -6 -43 -31 -30 -35 19 -45 50 -25 72 15 17 20 18 38
5 16 -10 20 -22 18 -47z m124 -14 c39 -25 98 -73 130 -108 l58 -62 146 0 c169
0 175 -3 233 -86 39 -58 117 -276 117 -330 0 -42 -26 -94 -62 -124 -26 -22
-39 -25 -115 -25 -139 0 -189 40 -323 260 -19 31 -48 74 -65 94 -94 118 -125
160 -125 170 0 11 -48 87 -96 153 -12 16 -13 26 -5 42 6 11 11 29 11 40 0 30
15 26 96 -24z"/>
<path d="M323 576 c-36 -17 -70 -64 -79 -113 -15 -77 53 -163 128 -163 33 0
47 6 78 38 50 49 60 97 34 160 -31 75 -97 106 -161 78z m108 -44 c62 -55 47
-167 -27 -198 -69 -29 -134 27 -134 117 0 33 6 47 34 75 43 43 83 45 127 6z"/>
<path d="M1518 530 c-126 -38 -148 -202 -36 -270 98 -60 228 15 228 131 0 87
-108 165 -192 139z m115 -44 c14 -10 33 -37 43 -61 15 -41 15 -46 -2 -82 -27
-54 -78 -86 -128 -80 -51 7 -88 35 -105 82 -13 32 -13 43 0 78 27 80 120 110
192 63z"/>
</g>
</svg>
