<?xml version="1.0" standalone="no"?>
<!DOCTYPE svg PUBLIC "-//W3C//DTD SVG 20010904//EN"
 "http://www.w3.org/TR/2001/REC-SVG-20010904/DTD/svg10.dtd">
<svg version="1.0" xmlns="http://www.w3.org/2000/svg"
 width="390.000000pt" height="348.000000pt" viewBox="0 0 390.000000 348.000000"
 preserveAspectRatio="xMidYMid meet">

<g transform="translate(0.000000,348.000000) scale(0.100000,-0.100000)"
fill="#000000" stroke="none">
<path d="M3104 3430 c-12 -5 -25 -13 -28 -19 -7 -10 -74 -56 -148 -100 -20
-12 -57 -45 -82 -72 -45 -50 -176 -239 -176 -254 0 -5 -7 -16 -15 -25 -8 -9
-25 -34 -37 -56 -46 -80 -64 -108 -94 -149 -18 -23 -35 -57 -39 -74 -4 -18
-30 -60 -58 -94 -52 -62 -97 -124 -97 -133 0 -5 -166 -249 -208 -306 -15 -20
-42 -48 -59 -63 -21 -17 -38 -44 -47 -74 -7 -25 -23 -64 -35 -86 -11 -22 -21
-45 -21 -51 0 -6 -9 -23 -21 -38 -17 -22 -24 -24 -35 -15 -10 8 -13 22 -8 42
5 26 4 28 -14 23 -11 -4 -23 -2 -27 4 -4 6 -14 8 -24 5 -13 -4 -22 5 -34 34
-10 22 -28 54 -40 73 -38 57 -87 159 -87 182 0 12 -9 41 -20 64 -11 22 -20 48
-20 57 0 9 -14 36 -30 60 -16 24 -30 50 -30 57 0 7 -13 29 -28 48 -29 36 -62
95 -62 113 0 5 -11 22 -25 39 -14 16 -25 36 -25 43 0 8 -28 51 -63 97 -35 46
-72 106 -82 133 -10 28 -26 59 -35 70 -8 11 -38 64 -65 118 -54 107 -123 186
-210 242 -29 18 -56 38 -59 44 -12 19 -51 12 -73 -11 -25 -28 -35 -74 -18 -88
7 -5 13 -22 13 -37 2 -38 6 -56 15 -70 5 -7 6 -13 2 -13 -3 0 1 -13 9 -29 9
-16 18 -43 21 -61 3 -18 15 -45 26 -59 86 -114 109 -157 123 -233 2 -14 9 -35
15 -46 6 -12 11 -29 11 -39 1 -10 9 -34 20 -53 29 -54 43 -84 46 -101 6 -30
35 -85 87 -166 15 -24 27 -49 27 -57 0 -8 4 -18 10 -21 8 -5 17 -30 36 -100 2
-5 5 -21 8 -35 7 -33 23 -63 69 -130 21 -30 50 -73 65 -95 15 -22 35 -46 45
-54 21 -15 18 -72 -8 -124 -8 -16 -15 -34 -15 -39 0 -5 -16 -37 -36 -71 -20
-34 -38 -73 -40 -87 -2 -14 -8 -43 -14 -65 -6 -22 -13 -53 -16 -70 -8 -43 -70
-103 -113 -111 -20 -3 -52 -13 -71 -22 -26 -12 -83 -18 -230 -22 -182 -7 -259
-17 -366 -50 -17 -6 -37 -10 -46 -10 -25 0 -58 -21 -141 -90 -44 -35 -86 -79
-95 -96 -10 -18 -32 -52 -50 -77 -29 -42 -32 -53 -34 -126 -1 -44 3 -86 8 -93
5 -7 11 -26 13 -43 2 -16 8 -36 13 -43 6 -6 8 -12 4 -12 -7 0 40 -88 83 -155
14 -22 26 -44 27 -50 8 -40 26 -65 51 -70 15 -4 37 -10 48 -15 11 -4 52 -13
90 -20 39 -7 77 -16 85 -20 8 -4 35 -13 60 -19 25 -7 61 -16 80 -21 48 -13
153 -12 187 1 15 6 48 11 73 10 39 -2 51 3 85 33 22 19 56 60 75 92 19 31 59
82 87 114 29 31 53 65 53 74 0 10 11 32 25 50 14 18 25 39 25 48 0 8 14 27 30
43 17 16 30 34 30 41 0 6 7 17 15 24 23 19 110 153 145 223 18 34 42 80 56
102 13 22 27 46 31 54 3 8 22 37 40 65 18 28 54 92 79 143 40 80 50 93 77 99
26 5 34 3 47 -17 8 -12 32 -43 52 -68 21 -25 44 -59 52 -76 8 -17 24 -39 36
-50 11 -10 20 -24 20 -30 0 -7 6 -18 14 -25 8 -6 24 -42 36 -78 17 -53 31 -76
69 -112 49 -46 99 -112 138 -183 13 -22 41 -56 64 -75 22 -19 45 -44 50 -56 5
-12 13 -28 18 -36 5 -8 16 -31 25 -50 27 -57 42 -80 73 -113 32 -35 67 -87 58
-87 -3 0 8 -21 25 -46 42 -60 149 -174 165 -174 6 0 20 -9 30 -20 10 -11 24
-20 30 -20 7 0 15 -6 18 -14 3 -8 24 -17 46 -21 23 -4 43 -11 47 -16 3 -5 70
-9 150 -9 115 0 152 3 177 17 42 21 236 205 254 240 8 16 17 71 20 128 5 93 3
106 -26 194 -18 52 -41 114 -51 137 -11 24 -25 67 -31 96 -5 29 -14 62 -19 73
-5 11 -14 33 -20 48 -5 15 -29 55 -52 89 -24 33 -47 68 -53 77 -33 54 -59 79
-111 106 -55 29 -61 30 -193 30 -75 -1 -185 -4 -246 -9 -141 -11 -184 -1 -208
49 -24 51 -202 213 -279 255 -85 46 -161 100 -141 100 11 0 58 31 104 70 46
38 88 70 93 70 5 0 60 52 123 115 63 63 122 115 130 115 25 0 132 111 189 195
29 44 69 100 88 125 19 25 35 48 35 53 1 8 73 102 126 163 19 23 35 46 35 52
0 7 36 52 80 101 44 49 80 93 80 97 0 4 11 19 23 33 13 15 33 58 45 96 26 86
42 135 53 157 5 10 9 51 9 92 0 64 -4 80 -27 116 -16 24 -42 48 -62 56 -37 15
-143 18 -177 4z m124 -61 c49 -17 80 -79 80 -159 0 -36 -6 -77 -14 -91 -7 -15
-11 -29 -7 -32 3 -4 -1 -17 -10 -31 -9 -13 -18 -36 -21 -50 -9 -50 -19 -71
-48 -104 -15 -18 -26 -37 -24 -41 3 -4 -31 -49 -75 -99 -43 -51 -79 -97 -79
-102 0 -5 -18 -30 -40 -55 -22 -25 -40 -51 -40 -57 0 -7 -17 -32 -38 -57 -21
-25 -44 -56 -50 -68 -7 -12 -29 -42 -50 -67 -20 -24 -48 -61 -62 -81 -46 -66
-103 -135 -113 -135 -12 0 -167 -129 -167 -139 0 -4 -39 -40 -87 -79 -49 -40
-104 -88 -123 -107 l-34 -35 -102 0 c-77 0 -104 -4 -114 -15 -10 -12 -15 -12
-35 1 -21 14 -23 19 -12 42 6 15 22 40 34 55 13 16 23 35 23 44 0 14 51 132
68 159 30 46 84 116 120 155 23 25 42 50 42 56 0 13 77 131 112 171 15 18 28
37 28 43 0 12 52 86 101 142 19 23 41 58 49 77 7 19 21 44 30 55 9 11 22 34
30 50 8 17 27 45 42 63 16 18 28 40 28 49 0 9 12 32 28 52 15 20 35 52 46 71
10 19 36 56 57 81 22 26 39 50 39 54 0 19 58 78 103 104 29 16 68 43 87 60 31
27 42 30 101 31 36 0 80 -5 97 -11z m-2215 -176 c49 -49 105 -137 146 -228 10
-22 25 -46 34 -53 9 -8 19 -27 23 -44 6 -30 50 -117 63 -128 19 -15 81 -99 81
-109 0 -7 8 -25 19 -39 28 -40 61 -101 61 -113 0 -6 16 -29 35 -51 19 -23 33
-44 30 -48 -2 -3 9 -26 25 -50 16 -25 32 -58 36 -75 3 -16 12 -42 20 -56 7
-15 16 -41 19 -59 6 -36 48 -126 86 -185 14 -22 41 -71 59 -110 18 -38 37 -78
42 -88 6 -12 3 -25 -9 -42 -10 -13 -21 -25 -24 -25 -12 0 -99 73 -99 84 0 7
-22 34 -49 60 -49 49 -67 81 -50 92 18 10 9 24 -16 24 -59 0 -173 172 -200
300 -7 35 -57 141 -101 215 -29 50 -54 104 -54 119 0 6 -14 34 -30 61 -16 28
-30 59 -30 70 0 11 -7 33 -15 49 -8 15 -15 41 -15 57 0 15 -4 31 -10 34 -5 3
-10 16 -10 29 0 20 -25 57 -110 168 -11 14 -20 34 -20 43 0 10 -11 49 -25 87
-34 94 -33 104 6 81 17 -10 54 -42 82 -70z m577 -1460 c0 -7 23 -30 51 -50 91
-68 118 -97 122 -129 6 -37 24 -74 37 -74 18 0 10 -29 -19 -72 -16 -24 -33
-56 -36 -70 -4 -15 -13 -32 -21 -39 -8 -6 -14 -17 -14 -24 0 -8 -11 -26 -23
-42 -24 -28 -37 -50 -79 -133 -13 -25 -33 -59 -45 -76 -12 -17 -27 -42 -33
-55 -11 -27 -21 -43 -65 -109 -17 -25 -36 -56 -43 -70 -7 -14 -26 -43 -42 -65
-64 -84 -120 -173 -120 -189 0 -9 -27 -46 -60 -81 -33 -35 -60 -71 -60 -78 0
-7 -11 -24 -25 -37 -18 -17 -31 -21 -54 -17 -17 4 -45 0 -65 -8 -50 -21 -151
-19 -232 5 -38 12 -87 26 -109 32 -22 5 -50 14 -63 19 -13 5 -38 9 -55 9 -18
0 -37 4 -43 9 -5 5 -22 11 -39 13 -24 2 -31 9 -40 38 -5 19 -21 53 -35 75 -14
22 -32 54 -40 70 -8 17 -19 36 -24 44 -15 20 -36 83 -36 108 0 12 -4 25 -10
28 -5 3 -10 42 -10 85 0 79 0 79 49 145 69 92 127 137 198 153 32 8 78 21 103
29 32 11 107 17 260 22 173 6 222 10 249 24 19 9 45 17 58 17 81 0 207 131
233 240 7 30 16 65 21 78 5 13 9 32 9 43 0 11 12 38 28 62 25 39 43 75 58 120
6 17 9 16 35 -9 16 -15 29 -34 29 -41z m332 -20 c43 -27 43 -29 36 -68 -5 -22
-8 -55 -9 -72 0 -18 -2 -33 -4 -33 -2 0 -23 9 -45 21 -81 43 -104 109 -52 154
15 13 28 25 29 25 1 0 22 -12 45 -27z m178 -62 c36 -22 87 -52 114 -66 88 -48
267 -208 297 -265 12 -23 33 -43 52 -51 32 -14 43 -14 397 -7 157 3 167 2 210
-21 42 -22 89 -66 90 -84 0 -5 16 -28 36 -50 34 -41 107 -177 110 -207 5 -46
18 -91 38 -135 19 -41 46 -111 51 -135 1 -3 9 -30 18 -60 17 -61 20 -143 6
-209 -11 -50 -62 -117 -132 -173 l-49 -38 -140 0 c-143 0 -233 17 -251 47 -4
7 -12 13 -17 13 -21 0 -103 65 -154 122 -30 34 -68 89 -84 122 -17 34 -46 77
-66 95 -20 19 -36 39 -36 43 0 5 -11 26 -25 46 -14 20 -25 46 -25 58 0 12 -30
53 -70 98 -38 42 -70 80 -70 84 0 15 -101 146 -144 186 -30 29 -49 57 -61 96
-20 64 -56 129 -85 155 -11 10 -20 24 -20 31 0 7 -20 37 -43 66 -81 100 -82
102 -58 143 12 20 21 48 21 63 0 34 10 72 19 72 3 0 35 -18 71 -39z"/>
<path d="M649 1137 c-52 -20 -92 -50 -123 -95 -102 -147 -57 -356 93 -434 37
-19 68 -28 101 -28 64 0 144 43 187 98 135 177 36 450 -169 468 -31 2 -68 -1
-89 -9z m174 -73 c62 -44 92 -110 92 -204 0 -64 -4 -82 -28 -123 -93 -157
-290 -133 -352 44 -72 202 126 396 288 283z"/>
<path d="M1884 1668 l-19 -23 23 19 c21 18 27 26 19 26 -2 0 -12 -10 -23 -22z"/>
<path d="M2943 1032 c-141 -50 -224 -191 -195 -330 61 -292 467 -326 571 -48
26 71 27 130 1 199 -57 151 -228 232 -377 179z m182 -49 c91 -30 165 -134 165
-229 0 -97 -73 -196 -168 -228 -127 -44 -266 19 -311 140 -25 66 -26 105 -4
169 43 127 186 193 318 148z"/>
</g>
</svg>
